<?xml version="1.0" encoding="UTF-8"?>
<svg version="1.1" xmlns="http://www.w3.org/2000/svg" width="621" height="609">
<path d="M0 0 C1.61793457 0.30550781 1.61793457 0.30550781 3.26855469 0.6171875 C56.04140467 10.7796858 108.15161139 35.51879823 147.40234375 72.55078125 C149.57698629 74.6011585 151.78671537 76.56443367 154.0625 78.5 C161.96921402 85.36895781 169.29206045 92.96375559 176 101 C176.64412842 101.74950928 176.64412842 101.74950928 177.30126953 102.51416016 C211.94602538 142.88840167 235.39955347 192.72396986 245 245 C245.31106689 246.65298096 245.31106689 246.65298096 245.62841797 248.33935547 C251.9069009 283.2854411 251.58173288 321.13103554 245 356 C244.79632812 357.09602539 244.59265625 358.19205078 244.3828125 359.32128906 C234.20649095 412.0716966 209.46696979 464.16669607 172.44921875 503.40234375 C170.3988415 505.57698629 168.43556633 507.78671537 166.5 510.0625 C159.63104219 517.96921402 152.03624441 525.29206045 144 532 C143.50032715 532.42941895 143.0006543 532.85883789 142.48583984 533.30126953 C102.02904157 568.01686655 52.31218565 591.23558749 0 601 C-1.55726807 601.31106689 -1.55726807 601.31106689 -3.14599609 601.62841797 C-40.84561682 608.88385996 -85.38730368 608.53416606 -123 601 C-124.07862305 600.79632812 -125.15724609 600.59265625 -126.26855469 600.3828125 C-179.04140467 590.2203142 -231.15161139 565.48120177 -270.40234375 528.44921875 C-272.57698629 526.3988415 -274.78671537 524.43556633 -277.0625 522.5 C-284.96921402 515.63104219 -292.29206045 508.03624441 -299 500 C-299.42941895 499.50032715 -299.85883789 499.0006543 -300.30126953 498.48583984 C-334.94602538 458.11159833 -358.39955347 408.27603014 -368 356 C-368.20737793 354.8980127 -368.41475586 353.79602539 -368.62841797 352.66064453 C-374.9069009 317.7145589 -374.58173288 279.86896446 -368 245 C-367.79632813 243.90397461 -367.59265625 242.80794922 -367.3828125 241.67871094 C-357.20649095 188.9283034 -332.46696979 136.83330393 -295.44921875 97.59765625 C-293.3988415 95.42301371 -291.43556633 93.21328463 -289.5 90.9375 C-282.63104219 83.03078598 -275.03624441 75.70793955 -267 69 C-266.50032715 68.57058105 -266.0006543 68.14116211 -265.48583984 67.69873047 C-225.02904157 32.98313345 -175.31218565 9.76441251 -123 0 C-121.44273193 -0.31106689 -121.44273193 -0.31106689 -119.85400391 -0.62841797 C-82.15438318 -7.88385996 -37.61269632 -7.53416606 0 0 Z " fill="#959595" transform="translate(372,4)"/>
<path d="M0 0 C27.60172001 -1.32135894 50.94972033 10.82394929 74.1875 24.66796875 C75.16976562 25.24877197 75.16976562 25.24877197 76.171875 25.84130859 C78 27 78 27 80.9375 29.36328125 C85.29787223 31.69363324 88.27754075 30.95972263 93 30 C94.32330322 29.74331543 94.32330322 29.74331543 95.67333984 29.48144531 C97.62053075 29.09220811 99.56578079 28.69317134 101.50927734 28.28588867 C143.23304244 19.60973011 186.10022185 19.36252611 227.65014648 29.10595703 C235.12638426 30.82511194 240.44536705 31.9586753 247.4453125 28.1015625 C248.67778912 27.28489758 249.90404686 26.45879472 251.125 25.625 C274.44235235 10.46250117 297.91694714 -0.62716495 326 0 C328.67573671 5.9207791 330.6192127 11.89682804 332.1875 18.1875 C332.43741699 19.18426758 332.43741699 19.18426758 332.69238281 20.20117188 C337.16938756 38.71593074 338.11774833 63.2816391 330.0625 81.0703125 C329.949589 84.55643954 332.76871817 86.86733512 334.9375 89.375 C347.39220926 104.51064157 355.00673024 121.87838136 359 141 C359.226875 142.03640625 359.45375 143.0728125 359.6875 144.140625 C366.57973154 182.23934936 359.31800554 230.13986106 338 263 C330.48322254 273.50983015 321.97676501 283.59451469 311.3125 291 C310.70293457 291.42587402 310.09336914 291.85174805 309.46533203 292.29052734 C284.55876226 309.4936332 250.58497484 321.68144767 220 321 C220.36351562 321.46148437 220.72703125 321.92296875 221.1015625 322.3984375 C238.08383593 344.43184867 240.5114804 366.80646562 240.2578125 393.828125 C240.24964966 395.95895888 240.2429962 398.08979901 240.23776245 400.22064209 C240.22083446 405.76792556 240.18668121 411.31495433 240.14770508 416.86212158 C240.08794316 425.77933823 240.05454272 434.69668676 240.02193832 443.61403656 C240.00805682 446.71111552 239.98647084 449.80806586 239.96365356 452.90509033 C239.95362968 454.80423904 239.94376396 456.70338858 239.93408203 458.60253906 C239.92161942 459.88054634 239.92161942 459.88054634 239.90890503 461.18437195 C239.89140694 465.90245873 240.20781128 470.34690899 241 475 C235.37978678 476.56998527 229.71842336 477.8397684 224 479 C222.58195068 479.28810547 222.58195068 479.28810547 221.13525391 479.58203125 C183.35303123 486.76120298 138.68611169 486.65669765 101 479 C100.05334473 478.80792969 99.10668945 478.61585938 98.13134766 478.41796875 C93.37742662 477.4205359 88.67815898 476.30682599 84 475 C84.16256948 474.43078795 84.32513895 473.86157591 84.49263477 473.27511501 C85.00797918 470.96421995 85.12202362 468.96231751 85.11784363 466.59815979 C85.11896149 465.72269501 85.12007935 464.84723022 85.12123108 463.94523621 C85.11756027 462.99208023 85.11388947 462.03892426 85.11010742 461.05688477 C85.11065031 458.96179707 85.11123733 456.86670938 85.11186218 454.7716217 C85.11043402 453.6599721 85.10900585 452.54832249 85.10753441 451.40298653 C85.10400083 445.48150275 85.12985851 439.56011224 85.15039062 433.63867188 C85.17460606 426.11897948 85.1905524 418.5995597 85.17504883 411.07983398 C85.16327205 404.99300968 85.18109943 398.90686186 85.21749306 392.82014275 C85.22601833 390.51812123 85.22416874 388.21603347 85.210989 385.91403389 C85.08141042 361.42208096 89.80662928 340.04812909 106 321 C105.195625 320.98582031 104.39125 320.97164063 103.5625 320.95703125 C71.08632649 319.63946719 37.72597694 308.96642987 12 289 C11.01 288.34 10.02 287.68 9 287 C9 286.34 9 285.68 9 285 C8.40316406 284.72542969 7.80632812 284.45085937 7.19140625 284.16796875 C-10.33751582 274.82545948 -21.4959351 247.5300264 -27.21386719 229.66748047 C-38.32642645 191.96070328 -40.95433403 145.64187912 -22.1875 110 C-12.19860668 91.68261629 -12.19860668 91.68261629 -5.6796875 85.96484375 C-3.71282262 84.12689612 -3.71282262 84.12689612 -4.15625 81.61328125 C-4.4346875 80.75089844 -4.713125 79.88851562 -5 79 C-5.2371875 78.06542969 -5.474375 77.13085938 -5.71875 76.16796875 C-6.2376674 74.18829888 -6.75848703 72.20912661 -7.28125 70.23046875 C-12.10347236 48.55667584 -10.61472012 19.90849729 0 0 Z " fill="#000000" transform="translate(148,126)"/>
<path d="M0 0 C7.71859759 5.16347563 12.4122631 12.38397187 15.83203125 20.89453125 C16.15171875 21.68988281 16.47140625 22.48523438 16.80078125 23.3046875 C21.15624079 36.35090196 20.02278694 51.33218155 14.83203125 63.89453125 C14.39890625 65.01021484 14.39890625 65.01021484 13.95703125 66.1484375 C10.57369602 73.866671 4.26172807 80.94256485 -3.16796875 84.89453125 C-10.05826768 87.54464622 -16.9174758 87.9780289 -23.91796875 85.64453125 C-33.41263296 80.53201975 -40.15892271 73.99457428 -44.16796875 63.89453125 C-44.54050781 62.98316406 -44.91304688 62.07179688 -45.296875 61.1328125 C-50.65304545 46.25870851 -49.47429909 30.0329475 -42.98046875 15.70703125 C-38.4562344 7.24453265 -31.97283179 0.12717088 -22.91796875 -3.35546875 C-14.06360944 -5.12634061 -8.02758189 -4.40022781 0 0 Z " fill="#4F4F4F" transform="translate(409.16796875,241.10546875)"/>
<path d="M0 0 C7.71859759 5.16347563 12.4122631 12.38397187 15.83203125 20.89453125 C16.15171875 21.68988281 16.47140625 22.48523438 16.80078125 23.3046875 C21.15624079 36.35090196 20.02278694 51.33218155 14.83203125 63.89453125 C14.39890625 65.01021484 14.39890625 65.01021484 13.95703125 66.1484375 C10.57369602 73.866671 4.26172807 80.94256485 -3.16796875 84.89453125 C-10.05826768 87.54464622 -16.9174758 87.9780289 -23.91796875 85.64453125 C-33.41263296 80.53201975 -40.15892271 73.99457428 -44.16796875 63.89453125 C-44.54050781 62.98316406 -44.91304687 62.07179688 -45.296875 61.1328125 C-50.65304545 46.25870851 -49.47429909 30.0329475 -42.98046875 15.70703125 C-38.4562344 7.24453265 -31.97283179 0.12717088 -22.91796875 -3.35546875 C-14.06360944 -5.12634061 -8.02758189 -4.40022781 0 0 Z " fill="#4F4F4F" transform="translate(231.16796875,241.10546875)"/>
<path d="M0 0 C0.7425 0.0825 1.485 0.165 2.25 0.25 C2.91 1.57 3.57 2.89 4.25 4.25 C2.19005539 5.85754096 0.12719524 7.4610805 -1.9375 9.0625 C-2.8047168 9.74022461 -2.8047168 9.74022461 -3.68945312 10.43164062 C-12.49857436 17.25 -12.49857436 17.25 -15.75 17.25 C-15.255 15.765 -15.255 15.765 -14.75 14.25 C-13.1 13.92 -11.45 13.59 -9.75 13.25 C-9.75 12.26 -9.75 11.27 -9.75 10.25 C-7.25 7.5625 -7.25 7.5625 -4.75 5.25 C-5.41 4.92 -6.07 4.59 -6.75 4.25 C-3.42692308 0.31153846 -3.42692308 0.31153846 0 0 Z " fill="#0E0E0E" transform="translate(462.75,406.75)"/>
<path d="M0 0 C1.65 0.99 3.3 1.98 5 3 C4.06981474 4.46300982 3.13055973 5.92025579 2.1875 7.375 C1.66542969 8.18710937 1.14335937 8.99921875 0.60546875 9.8359375 C-1 12 -1 12 -4 14 C-3.49396008 11.83125748 -3.00016187 10.00032373 -2 8 C-2.99 7.67 -3.98 7.34 -5 7 C-4.01 6.67 -3.02 6.34 -2 6 C-1.32843384 4.06381575 -1.32843384 4.06381575 -1 2 C-0.67 1.34 -0.34 0.68 0 0 Z " fill="#0D0D0D" transform="translate(476,391)"/>
<path d="M0 0 C0.66 0.66 1.32 1.32 2 2 C1.01 3.485 1.01 3.485 0 5 C0.33 5.66 0.66 6.32 1 7 C0.34 7 -0.32 7 -1 7 C-1.33 8.32 -1.66 9.64 -2 11 C-4.475 10.01 -4.475 10.01 -7 9 C-2.85714286 2.57142857 -2.85714286 2.57142857 0 0 Z " fill="#0D0D0D" transform="translate(144,210)"/>
<path d="M0 0 C1.65 1.65 3.3 3.3 5 5 C4.34 6.32 3.68 7.64 3 9 C1.02 8.01 -0.96 7.02 -3 6 C-2.67 4.35 -2.34 2.7 -2 1 C-1.34 1.33 -0.68 1.66 0 2 C0 1.34 0 0.68 0 0 Z " fill="#0F0F0F" transform="translate(482,215)"/>
<path d="M0 0 C0.5775 0.20625 1.155 0.4125 1.75 0.625 C-0.77774209 3.71446256 -3.42934281 4.64951306 -7.25 5.625 C-7.91 5.295 -8.57 4.965 -9.25 4.625 C-9.25 3.965 -9.25 3.305 -9.25 2.625 C-9.91 2.295 -10.57 1.965 -11.25 1.625 C-10.5075 1.66625 -9.765 1.7075 -9 1.75 C-6.27158473 1.81755519 -6.27158473 1.81755519 -4.1875 0.5625 C-2.25 -0.375 -2.25 -0.375 0 0 Z " fill="#0F0F0F" transform="translate(445.25,423.375)"/>
<path d="M0 0 C1.0625 1.8125 1.0625 1.8125 2 4 C0.75453595 7.73639216 -0.63404953 8.18756513 -4 10 C-4.33 9.01 -4.66 8.02 -5 7 C-4.00390625 5.17578125 -4.00390625 5.17578125 -2.5625 3.3125 C-2.08941406 2.68988281 -1.61632812 2.06726563 -1.12890625 1.42578125 C-0.75636719 0.95527344 -0.38382813 0.48476563 0 0 Z " fill="#0C0C0C" transform="translate(249,454)"/>
<path d="M0 0 C2.9375 0.8125 2.9375 0.8125 6 2 C6.33 2.99 6.66 3.98 7 5 C7.66 5.66 8.32 6.32 9 7 C7.68 7.33 6.36 7.66 5 8 C5 7.34 5 6.68 5 6 C4.38125 5.731875 3.7625 5.46375 3.125 5.1875 C1 4 1 4 -1 1 C-0.67 0.67 -0.34 0.34 0 0 Z " fill="#121212" transform="translate(152,405)"/>
<path d="M0 0 C2.475 0.99 2.475 0.99 5 2 C4.67 3.32 4.34 4.64 4 6 C2.35 6.33 0.7 6.66 -1 7 C-1.33 6.34 -1.66 5.68 -2 5 C-1.0625 2.375 -1.0625 2.375 0 0 Z " fill="#0B0B0B" transform="translate(192,135)"/>
<path d="M0 0 C0.99 0.66 1.98 1.32 3 2 C3.66 1.67 4.32 1.34 5 1 C5.33 2.32 5.66 3.64 6 5 C4.02 5.99 4.02 5.99 2 7 C0.68 5.02 -0.64 3.04 -2 1 C-1.34 0.67 -0.68 0.34 0 0 Z " fill="#101010" transform="translate(145,396)"/>
<path d="M0 0 C0.33 1.32 0.66 2.64 1 4 C1.66 4 2.32 4 3 4 C2.67 5.98 2.34 7.96 2 10 C1.01 10.33 0.02 10.66 -1 11 C-0.67 7.37 -0.34 3.74 0 0 Z " fill="#0B0B0B" transform="translate(115,267)"/>
<path d="M0 0 C0.66 0.33 1.32 0.66 2 1 C0.35 2.65 -1.3 4.3 -3 6 C-4.32 5.34 -5.64 4.68 -7 4 C-4.61426621 2.10786631 -2.92824652 0.97608217 0 0 Z " fill="#0D0D0D" transform="translate(432,134)"/>
<path d="M0 0 C1.32 0 2.64 0 4 0 C4 0.66 4 1.32 4 2 C4.99 2.33 5.98 2.66 7 3 C7 3.66 7 4.32 7 5 C6.34 5 5.68 5 5 5 C4.67 5.66 4.34 6.32 4 7 C2.02 3.535 2.02 3.535 0 0 Z " fill="#0C0C0C" transform="translate(138,390)"/>
<path d="M0 0 C3.82097239 0.53069061 6.06171403 1.49701566 9 4 C7.02 4.99 7.02 4.99 5 6 C5 5.34 5 4.68 5 4 C4.360625 3.71125 3.72125 3.4225 3.0625 3.125 C1 2 1 2 0 0 Z " fill="#0F0F0F" transform="translate(209,145)"/>
<path d="M0 0 C1.32 0.33 2.64 0.66 4 1 C3.67 1.99 3.34 2.98 3 4 C2.01 4.33 1.02 4.66 0 5 C-0.33 5.99 -0.66 6.98 -1 8 C-1.66 7.67 -2.32 7.34 -3 7 C-2.01 4.69 -1.02 2.38 0 0 Z " fill="#0F0F0F" transform="translate(242,465)"/>
<path d="M0 0 C0 1.65 0 3.3 0 5 C-0.99 5.33 -1.98 5.66 -3 6 C-3.66 4.35 -4.32 2.7 -5 1 C-1.125 0 -1.125 0 0 0 Z " fill="#0C0C0C" transform="translate(135,376)"/>
<path d="M0 0 C0.99 0.66 1.98 1.32 3 2 C2.01 3.32 1.02 4.64 0 6 C-0.99 5.01 -1.98 4.02 -3 3 C-2.67 2.34 -2.34 1.68 -2 1 C-1.34 1.33 -0.68 1.66 0 2 C0 1.34 0 0.68 0 0 Z " fill="#0E0E0E" transform="translate(485,383)"/>
</svg>
